<mxfile host="app.diagrams.net" modified="2024-03-06T06:13:57.677Z" agent="Mozilla/5.0 (Windows NT 10.0; Win64; x64) AppleWebKit/537.36 (KHTML, like Gecko) Chrome/122.0.0.0 Safari/537.36 Edg/122.0.0.0" version="23.1.7" etag="YbsEmd3fmlAvDTefurOB" type="github">
  <diagram name="Page-1" id="p9rTT8WAVjlQeRC8qa4n">
    <mxGraphModel>
      <root>
        <mxCell id="0" />
        <mxCell id="1" parent="0" />
      </root>
    </mxGraphModel>
  </diagram>
</mxfile>
